<svg width="20" height="22" viewBox="0 0 16 18" fill="red" xmlns="http://www.w3.org/2000/svg">
                <g clip-path="url(#clip0)">
                  <path d="M5.89672 7.04775L4.20215 8.17487L4.69186 8.97552L5.80344 8.26038V12.1781H6.87612V7.04775H5.89672ZM10.1531 6.95447C10.8113 6.95447 11.3062 7.16694 11.6378 7.59188C11.9747 8.01163 12.1431 8.69309 12.1431 9.63625C12.1431 10.1078 12.1016 10.5094 12.0187 10.8411C11.9358 11.1728 11.8114 11.4448 11.6456 11.6573C11.4798 11.8698 11.2725 12.0252 11.0238 12.1237C10.775 12.2222 10.4848 12.2714 10.1531 12.2714C9.82148 12.2714 9.53128 12.2222 9.28254 12.1237C9.03379 12.0252 8.8265 11.8698 8.66067 11.6573C8.49484 11.4448 8.37047 11.1728 8.28756 10.8411C8.20464 10.5094 8.16318 10.1078 8.16318 9.63625C8.16318 9.28904 8.1891 8.95479 8.24092 8.6335C8.29792 8.30702 8.39897 8.01941 8.54408 7.77066C8.69436 7.52192 8.89646 7.32499 9.15039 7.17989C9.4095 7.02961 9.74375 6.95447 10.1531 6.95447ZM11.0393 9.61293C11.0393 8.97552 10.9719 8.52726 10.8372 8.26815C10.7076 8.01422 10.4822 7.88726 10.1609 7.88726C10.0003 7.88726 9.86294 7.91835 9.74893 7.98054C9.64011 8.04273 9.54942 8.14119 9.47687 8.27593C9.40432 8.41066 9.34991 8.58945 9.31363 8.81228C9.28254 9.02993 9.26699 9.29941 9.26699 9.6207C9.26699 9.93682 9.28254 10.2063 9.31363 10.4291C9.34991 10.6468 9.40432 10.823 9.47687 10.9577C9.54942 11.0924 9.6427 11.1909 9.75671 11.2531C9.87072 11.3101 10.0055 11.3386 10.1609 11.3386C10.4822 11.3386 10.7076 11.2116 10.8372 10.9577C10.9719 10.6986 11.0393 10.2503 11.0393 9.61293Z" fill="#F1F5F9" />
                  <path fill-rule="evenodd" clip-rule="evenodd" d="M8.67917 0.129748V1.03085L6.93031 0.0176489C6.84397 -0.0323907 6.73585 0.0299303 6.73585 0.129748V1.72435C2.95194 2.34344 0.0644531 5.62804 0.0644531 9.58704C0.0644531 13.9874 3.63167 17.5547 8.03205 17.5547C12.3851 17.5547 15.9228 14.0639 15.9984 9.72891H15.995L15.9993 9.4023C16.0044 9.00884 15.6897 8.68567 15.2962 8.68049C14.9027 8.6753 14.5795 8.99012 14.5743 9.38358L14.5677 9.89046C14.4092 13.3629 11.5437 16.1296 8.03205 16.1296C4.41873 16.1296 1.48956 13.2004 1.48956 9.58704C1.48956 6.4175 3.7434 3.77437 6.73585 3.17293V4.40892C6.73585 4.50873 6.84397 4.57106 6.93031 4.52102L8.67917 3.50782V4.40892C8.67917 4.50873 8.78728 4.57106 8.87363 4.52102L12.5667 2.38143C12.6528 2.33152 12.6528 2.20714 12.5667 2.15723L8.87363 0.0176489C8.78728 -0.0323907 8.67917 0.0299303 8.67917 0.129748Z" fill="#F1F5F9" />
                </g>
                <defs>
                  <clipPath id="clip0">
                    <rect width="16" height="17.5547" fill="white" />
                  </clipPath>
                </defs>
              </svg>