<svg width="20" height="22" viewBox="0 0 16 18" fill="none" xmlns="http://www.w3.org/2000/svg">
<g clip-path="url(#clip0)">
<path d="M5.53105 7.07645L3.82959 8.20815L4.3213 9.01206L5.43739 8.29401V12.2277H6.51447V7.07645H5.53105ZM9.80474 6.98279C10.4656 6.98279 10.9625 7.19612 11.2955 7.62279C11.6337 8.04425 11.8028 8.72848 11.8028 9.67547C11.8028 10.149 11.7612 10.5522 11.6779 10.8852C11.5947 11.2182 11.4698 11.4914 11.3033 11.7047C11.1368 11.9181 10.9286 12.0742 10.6789 12.173C10.4291 12.2719 10.1378 12.3213 9.80474 12.3213C9.47174 12.3213 9.18035 12.2719 8.9306 12.173C8.68084 12.0742 8.47271 11.9181 8.30621 11.7047C8.1397 11.4914 8.01483 11.2182 7.93157 10.8852C7.84832 10.5522 7.8067 10.149 7.8067 9.67547C7.8067 9.32685 7.83271 8.99124 7.88474 8.66864C7.94198 8.34084 8.04344 8.05206 8.18914 7.8023C8.34003 7.55254 8.54296 7.35482 8.79792 7.20913C9.05808 7.05823 9.39369 6.98279 9.80474 6.98279ZM10.6945 9.65206C10.6945 9.01206 10.6269 8.56198 10.4916 8.30181C10.3615 8.04685 10.1352 7.91937 9.81255 7.91937C9.65125 7.91937 9.51336 7.95059 9.39889 8.01303C9.28962 8.07547 9.19857 8.17433 9.12572 8.30962C9.05287 8.4449 8.99824 8.62441 8.96182 8.84815C8.9306 9.06669 8.91499 9.33726 8.91499 9.65986C8.91499 9.97726 8.9306 10.2478 8.96182 10.4716C8.99824 10.6901 9.05287 10.867 9.12572 11.0023C9.19857 11.1376 9.29222 11.2364 9.4067 11.2989C9.52117 11.3561 9.65645 11.3847 9.81255 11.3847C10.1352 11.3847 10.3615 11.2573 10.4916 11.0023C10.6269 10.7421 10.6945 10.2921 10.6945 9.65206Z" fill="#1e293b"/>
<path fill-rule="evenodd" clip-rule="evenodd" d="M7.34998 0.130276V1.03504L9.10589 0.0177206C9.19265 -0.0325224 9.3012 0.030052 9.3012 0.130276V1.73136C13.1005 2.35296 15.9997 5.65091 15.9997 9.62602C15.9997 14.0443 12.418 17.626 7.99967 17.626C3.62899 17.626 0.0769281 14.121 0.000930621 9.76846H0.00437128L6.304e-05 9.44052C-0.0051282 9.04546 0.310952 8.72098 0.706049 8.71577C1.10114 8.71057 1.42565 9.02667 1.43084 9.42172L1.43752 9.93067C1.59667 13.4172 4.47378 16.1951 7.99967 16.1951C11.6277 16.1951 14.5688 13.254 14.5688 9.62602C14.5688 6.44359 12.3058 3.78971 9.3012 3.18583V4.42684C9.3012 4.52706 9.19265 4.58964 9.10589 4.5394L7.34998 3.52208V4.42684C7.34998 4.52706 7.24143 4.58964 7.15467 4.5394L3.44668 2.39112C3.36019 2.341 3.36019 2.21612 3.44669 2.166L7.15467 0.0177206C7.24143 -0.0325224 7.34998 0.030052 7.34998 0.130276Z" fill="#1e293b"/>
</g>
<defs>
<clipPath id="clip0">
<rect width="16" height="17.626" fill="#1e293b"/>
</clipPath>
</defs>
</svg>
