<svg width="113" height="53" viewBox="0 0 113 53" fill="none" xmlns="http://www.w3.org/2000/svg">
<path d="M66.6286 6.32356H62.6399V17.147H59.4368V6.32356H55.521V3.84833H66.6286V6.32356ZM79.0964 17.147H75.9109V11.5937H71.1922V17.147H67.9885V3.84833H71.1922V9.12762H75.9109V3.84833H79.0964V17.147ZM89.3735 11.5115H84.3354V14.6809H90.2864V17.147H81.1318V3.84833H90.3045V6.32356H84.3354V9.12762H89.3735V11.5115Z" fill="white"/>
<path d="M60.404 19.4365L63.3703 28.689L66.3274 19.4365H70.544V32.7353H67.3316V29.6298L67.6415 23.2728L64.4291 32.7353H62.3116L59.0898 23.2636L59.3998 29.6298V32.7353H56.1963V19.4365H60.404ZM83.8421 26.36C83.8421 27.657 83.6022 28.8047 83.1214 29.8033C82.6406 30.802 81.9562 31.5722 81.0678 32.1142C80.1851 32.65 79.1783 32.918 78.0464 32.918C76.915 32.918 75.9108 32.6592 75.0349 32.1416C74.1584 31.6179 73.4741 30.872 72.9808 29.9038C72.4943 28.9357 72.2388 27.8244 72.2144 26.57V25.8211C72.2144 24.5179 72.4517 23.3702 72.9263 22.3776C73.4071 21.379 74.0914 20.6087 74.9798 20.0668C75.8745 19.5249 76.8906 19.2539 78.0282 19.2539C79.1539 19.2539 80.1581 19.5218 81.0403 20.0577C81.9225 20.5935 82.6073 21.3577 83.0938 22.3502C83.5866 23.3367 83.8363 24.4693 83.8421 25.748V26.36ZM80.5839 25.8028C80.5839 24.4814 80.3617 23.4798 79.9177 22.7978C79.4795 22.1097 78.8497 21.7657 78.0282 21.7657C76.4217 21.7657 75.5733 22.9713 75.4819 25.3826L75.4726 26.36C75.4726 27.663 75.6886 28.6647 76.1206 29.365C76.5526 30.0652 77.1949 30.4153 78.0464 30.4153C78.8559 30.4153 79.4795 30.0713 79.9177 29.3832C80.3559 28.6951 80.5777 27.7056 80.5839 26.4147V25.8028ZM90.4503 29.1183L93.0974 19.4365H96.6749L92.2027 32.7353H88.6979L84.2621 19.4365H87.8126L90.4503 29.1183ZM101.065 32.7353H97.8706V19.4365H101.065V32.7353ZM111.534 27.0998H106.496V30.2692H112.446V32.7353H103.292V19.4365H112.465V21.9118H106.496V24.7159H111.534V27.0998Z" fill="white"/>
<path d="M56.1963 48.3236V35.0248H60.9699C62.6798 35.0248 63.9789 35.3384 64.8668 35.9656C65.7614 36.5928 66.2085 37.5031 66.2085 38.6966C66.2085 39.3847 66.0506 39.9723 65.7339 40.4594C65.4177 40.9465 64.9524 41.3058 64.3377 41.5372C65.0314 41.7199 65.5636 42.0609 65.9348 42.5602C66.3061 43.0595 66.4914 43.6684 66.4914 44.3869C66.4914 45.69 66.0781 46.6704 65.2505 47.328C64.4291 47.9795 63.2089 48.3114 61.5904 48.3236H56.1963ZM59.3998 42.6697V45.8574H61.499C62.0769 45.8574 62.5214 45.7266 62.8319 45.4647C63.1419 45.1968 63.2971 44.8223 63.2971 44.3412C63.2971 43.233 62.7467 42.6759 61.6449 42.6697H59.3998ZM59.3998 40.569H61.0701C61.7701 40.5629 62.2691 40.4351 62.5671 40.1854C62.8651 39.9357 63.0142 39.5673 63.0142 39.0802C63.0142 38.52 62.8532 38.1181 62.5302 37.8745C62.2078 37.6249 61.6875 37.5001 60.9699 37.5001H59.3998V40.569ZM75.8106 45.8392H71.4205L70.6536 48.3236H67.2308L72.1048 35.0248H75.1169L80.0273 48.3236H76.5863L75.8106 45.8392ZM72.1869 43.3639H75.0437L73.6106 38.7514L72.1869 43.3639ZM87.8583 44.7888C87.8583 44.3199 87.6911 43.9546 87.3562 43.6927C87.0275 43.4309 86.4465 43.1599 85.6131 42.8798C84.7793 42.5998 84.098 42.3288 83.5684 42.0669C81.8466 41.2206 80.9852 40.0575 80.9852 38.5778C80.9852 37.8411 81.1986 37.1926 81.6244 36.6324C82.0564 36.0661 82.665 35.6277 83.45 35.3171C84.2346 35.0005 85.1168 34.8422 86.0966 34.8422C87.0519 34.8422 87.9071 35.0126 88.6616 35.3537C89.4222 35.6946 90.0121 36.1818 90.4321 36.8151C90.8517 37.4422 91.062 38.1607 91.062 38.9706H87.8671C87.8671 38.4287 87.6999 38.0085 87.3656 37.7101C87.0369 37.4118 86.5893 37.2626 86.0239 37.2626C85.4517 37.2626 84.9984 37.3905 84.6635 37.6462C84.3353 37.8958 84.1707 38.2156 84.1707 38.6053C84.1707 38.9462 84.3535 39.2568 84.7185 39.5369C85.0835 39.8109 85.7253 40.0971 86.6443 40.3955C87.5629 40.6878 88.3178 41.0044 88.9077 41.3454C90.3439 42.1735 91.062 43.3152 91.062 44.7705C91.062 45.9336 90.6237 46.8469 89.7473 47.5106C88.8713 48.1744 87.6698 48.5062 86.1422 48.5062C85.0654 48.5062 84.0887 48.3144 83.2127 47.9308C82.3425 47.5411 81.6852 47.0113 81.2412 46.3415C80.803 45.6657 80.5839 44.8893 80.5839 44.0124H83.7969C83.7969 44.7248 83.9791 45.2516 84.3442 45.5925C84.7154 45.9275 85.3146 46.0949 86.1422 46.0949C86.6719 46.0949 87.0883 45.9822 87.3926 45.7569C87.7031 45.5256 87.8583 45.2028 87.8583 44.7888ZM100.947 42.688H95.9085V45.8574H101.859V48.3236H92.7048V35.0248H101.878V37.5001H95.9085V40.3041H100.947V42.688Z" fill="white"/>
<path d="M40.3394 5.19611H7.17965C4.62696 5.19611 2.55762 7.26695 2.55762 9.8215V43.0054C2.55762 45.5599 4.62696 47.6308 7.17965 47.6308H40.3394C42.8921 47.6308 44.9615 45.5599 44.9615 43.0054V9.8215C44.9615 7.26695 42.8921 5.19611 40.3394 5.19611Z" stroke="#38BDF8" stroke-width="4" stroke-linecap="round" stroke-linejoin="round"/>
<path d="M13.1587 5.19611V47.6308" stroke="#38BDF8" stroke-width="4" stroke-linecap="round" stroke-linejoin="round"/>
<path d="M34.3604 5.19611V47.6308" stroke="#38BDF8" stroke-width="4" stroke-linecap="round" stroke-linejoin="round"/>
<path d="M2.55762 26.4134H44.9615" stroke="#38BDF8" stroke-width="4" stroke-linecap="round" stroke-linejoin="round"/>
<path d="M2.55762 15.8047H13.1586" stroke="#38BDF8" stroke-width="4" stroke-linecap="round" stroke-linejoin="round"/>
<path d="M2.55762 37.022H13.1586" stroke="#38BDF8" stroke-width="4" stroke-linecap="round" stroke-linejoin="round"/>
<path d="M34.3604 37.022H44.9613" stroke="#38BDF8" stroke-width="4" stroke-linecap="round" stroke-linejoin="round"/>
<path d="M34.3604 15.8047H44.9613" stroke="#38BDF8" stroke-width="4" stroke-linecap="round" stroke-linejoin="round"/>
</svg>
