<svg width="102" height="44" viewBox="0 0 102 44" fill="none" xmlns="http://www.w3.org/2000/svg">
<path d="M36.6355 2.01376H7.99244C4.828 2.01376 2.25 4.57015 2.25 7.73927V36.2608C2.25 39.4299 4.828 41.9863 7.99244 41.9863H36.6355C39.7999 41.9863 42.3779 39.4299 42.3779 36.2608V7.73927C42.3779 4.57015 39.7999 2.01376 36.6355 2.01376Z" stroke="#0EA5E9" stroke-width="3.5" stroke-linecap="round" stroke-linejoin="round"/>
<path d="M13.157 3.76376V40.2363" stroke="#0EA5E9" stroke-width="3.5" stroke-linecap="round" stroke-linejoin="round"/>
<path d="M31.4709 3.76376V40.2363" stroke="#0EA5E9" stroke-width="3.5" stroke-linecap="round" stroke-linejoin="round"/>
<path d="M4 22H40.6279" stroke="#0EA5E9" stroke-width="3.5" stroke-linecap="round" stroke-linejoin="round"/>
<path d="M4 12.8819H13.157" stroke="#0EA5E9" stroke-width="3.5" stroke-linecap="round" stroke-linejoin="round"/>
<path d="M4 31.1181H13.157" stroke="#0EA5E9" stroke-width="3.5" stroke-linecap="round" stroke-linejoin="round"/>
<path d="M31.4709 31.1181H40.6279" stroke="#0EA5E9" stroke-width="3.5" stroke-linecap="round" stroke-linejoin="round"/>
<path d="M31.4709 12.8819H40.6279" stroke="#0EA5E9" stroke-width="3.5" stroke-linecap="round" stroke-linejoin="round"/>
<path d="M60.6179 2.4C60.6779 2.4 60.7259 2.424 60.7619 2.472C60.8099 2.508 60.8339 2.556 60.8339 2.616V4.758C60.8339 4.818 60.8099 4.872 60.7619 4.92C60.7259 4.956 60.6779 4.974 60.6179 4.974H57.4679C57.4079 4.974 57.3779 5.004 57.3779 5.064V14.784C57.3779 14.844 57.3539 14.898 57.3059 14.946C57.2699 14.982 57.2219 15 57.1619 15H54.6059C54.5459 15 54.4919 14.982 54.4439 14.946C54.4079 14.898 54.3899 14.844 54.3899 14.784V5.064C54.3899 5.004 54.3599 4.974 54.2999 4.974H51.2579C51.1979 4.974 51.1439 4.956 51.0959 4.92C51.0599 4.872 51.0419 4.818 51.0419 4.758V2.616C51.0419 2.556 51.0599 2.508 51.0959 2.472C51.1439 2.424 51.1979 2.4 51.2579 2.4H60.6179ZM68.6611 2.616C68.6611 2.556 68.6791 2.508 68.7151 2.472C68.7631 2.424 68.8171 2.4 68.8771 2.4H71.4331C71.4931 2.4 71.5411 2.424 71.5771 2.472C71.6251 2.508 71.6491 2.556 71.6491 2.616V14.784C71.6491 14.844 71.6251 14.898 71.5771 14.946C71.5411 14.982 71.4931 15 71.4331 15H68.8771C68.8171 15 68.7631 14.982 68.7151 14.946C68.6791 14.898 68.6611 14.844 68.6611 14.784V9.996C68.6611 9.936 68.6311 9.906 68.5711 9.906H65.2051C65.1451 9.906 65.1151 9.936 65.1151 9.996V14.784C65.1151 14.844 65.0911 14.898 65.0431 14.946C65.0071 14.982 64.9591 15 64.8991 15H62.3431C62.2831 15 62.2291 14.982 62.1811 14.946C62.1451 14.898 62.1271 14.844 62.1271 14.784V2.616C62.1271 2.556 62.1451 2.508 62.1811 2.472C62.2291 2.424 62.2831 2.4 62.3431 2.4H64.8991C64.9591 2.4 65.0071 2.424 65.0431 2.472C65.0911 2.508 65.1151 2.556 65.1151 2.616V7.26C65.1151 7.32 65.1451 7.35 65.2051 7.35H68.5711C68.6311 7.35 68.6611 7.32 68.6611 7.26V2.616ZM82.2176 4.74C82.2176 4.8 82.1936 4.854 82.1456 4.902C82.1096 4.938 82.0616 4.956 82.0016 4.956H76.3496C76.2896 4.956 76.2596 4.986 76.2596 5.046V7.26C76.2596 7.32 76.2896 7.35 76.3496 7.35H79.9676C80.0276 7.35 80.0756 7.374 80.1116 7.422C80.1596 7.458 80.1836 7.506 80.1836 7.566V9.672C80.1836 9.732 80.1596 9.786 80.1116 9.834C80.0756 9.87 80.0276 9.888 79.9676 9.888H76.3496C76.2896 9.888 76.2596 9.918 76.2596 9.978V12.354C76.2596 12.414 76.2896 12.444 76.3496 12.444H82.0016C82.0616 12.444 82.1096 12.468 82.1456 12.516C82.1936 12.552 82.2176 12.6 82.2176 12.66V14.784C82.2176 14.844 82.1936 14.898 82.1456 14.946C82.1096 14.982 82.0616 15 82.0016 15H73.4876C73.4276 15 73.3736 14.982 73.3256 14.946C73.2896 14.898 73.2716 14.844 73.2716 14.784V2.616C73.2716 2.556 73.2896 2.508 73.3256 2.472C73.3736 2.424 73.4276 2.4 73.4876 2.4H82.0016C82.0616 2.4 82.1096 2.424 82.1456 2.472C82.1936 2.508 82.2176 2.556 82.2176 2.616V4.74ZM59.5919 16.544C59.6399 16.448 59.7239 16.4 59.8439 16.4H62.3819C62.4419 16.4 62.4899 16.424 62.5259 16.472C62.5739 16.508 62.5979 16.556 62.5979 16.616V28.784C62.5979 28.844 62.5739 28.898 62.5259 28.946C62.4899 28.982 62.4419 29 62.3819 29H59.8259C59.7659 29 59.7119 28.982 59.6639 28.946C59.6279 28.898 59.6099 28.844 59.6099 28.784V21.548C59.6099 21.5 59.5979 21.476 59.5739 21.476C59.5499 21.476 59.5259 21.494 59.5019 21.53L57.9539 24.014C57.9059 24.11 57.8219 24.158 57.7019 24.158H56.4239C56.3039 24.158 56.2199 24.11 56.1719 24.014L54.6059 21.512C54.5819 21.476 54.5579 21.458 54.5339 21.458C54.5099 21.458 54.4979 21.482 54.4979 21.53V28.784C54.4979 28.844 54.4739 28.898 54.4259 28.946C54.3899 28.982 54.3419 29 54.2819 29H51.7259C51.6659 29 51.6119 28.982 51.5639 28.946C51.5279 28.898 51.5099 28.844 51.5099 28.784V16.616C51.5099 16.556 51.5279 16.508 51.5639 16.472C51.6119 16.424 51.6659 16.4 51.7259 16.4H54.2639C54.3719 16.4 54.4559 16.448 54.5159 16.544L57.0179 20.468C57.0539 20.54 57.0899 20.54 57.1259 20.468L59.5919 16.544ZM69.0575 29.198C68.0855 29.198 67.2275 29.006 66.4835 28.622C65.7515 28.226 65.1815 27.674 64.7735 26.966C64.3655 26.258 64.1615 25.436 64.1615 24.5V20.9C64.1615 19.988 64.3655 19.184 64.7735 18.488C65.1815 17.78 65.7515 17.234 66.4835 16.85C67.2275 16.454 68.0855 16.256 69.0575 16.256C70.0295 16.256 70.8875 16.454 71.6315 16.85C72.3755 17.234 72.9515 17.78 73.3595 18.488C73.7675 19.184 73.9715 19.988 73.9715 20.9V24.5C73.9715 25.436 73.7675 26.258 73.3595 26.966C72.9515 27.674 72.3755 28.226 71.6315 28.622C70.8875 29.006 70.0295 29.198 69.0575 29.198ZM69.0575 26.642C69.6335 26.642 70.0955 26.456 70.4435 26.084C70.8035 25.712 70.9835 25.214 70.9835 24.59V20.864C70.9835 20.252 70.8035 19.76 70.4435 19.388C70.0955 19.004 69.6335 18.812 69.0575 18.812C68.4935 18.812 68.0315 19.004 67.6715 19.388C67.3235 19.76 67.1495 20.252 67.1495 20.864V24.59C67.1495 25.214 67.3235 25.712 67.6715 26.084C68.0315 26.456 68.4935 26.642 69.0575 26.642ZM78.6784 29C78.5584 29 78.4804 28.94 78.4444 28.82L74.8084 16.652L74.7904 16.58C74.7904 16.46 74.8564 16.4 74.9884 16.4H77.7424C77.8744 16.4 77.9584 16.46 77.9944 16.58L80.0644 24.77C80.0764 24.806 80.0944 24.824 80.1184 24.824C80.1424 24.824 80.1604 24.806 80.1724 24.77L82.2064 16.58C82.2424 16.46 82.3264 16.4 82.4584 16.4H85.1584C85.2304 16.4 85.2844 16.424 85.3204 16.472C85.3564 16.52 85.3624 16.58 85.3384 16.652L81.6484 28.82C81.6124 28.94 81.5344 29 81.4144 29H78.6784ZM86.8646 29C86.8046 29 86.7506 28.982 86.7026 28.946C86.6666 28.898 86.6486 28.844 86.6486 28.784V16.616C86.6486 16.556 86.6666 16.508 86.7026 16.472C86.7506 16.424 86.8046 16.4 86.8646 16.4H89.4206C89.4806 16.4 89.5286 16.424 89.5646 16.472C89.6126 16.508 89.6366 16.556 89.6366 16.616V28.784C89.6366 28.844 89.6126 28.898 89.5646 28.946C89.5286 28.982 89.4806 29 89.4206 29H86.8646ZM100.358 18.74C100.358 18.8 100.334 18.854 100.286 18.902C100.25 18.938 100.202 18.956 100.142 18.956H94.4903C94.4303 18.956 94.4003 18.986 94.4003 19.046V21.26C94.4003 21.32 94.4303 21.35 94.4903 21.35H98.1083C98.1683 21.35 98.2163 21.374 98.2523 21.422C98.3003 21.458 98.3243 21.506 98.3243 21.566V23.672C98.3243 23.732 98.3003 23.786 98.2523 23.834C98.2163 23.87 98.1683 23.888 98.1083 23.888H94.4903C94.4303 23.888 94.4003 23.918 94.4003 23.978V26.354C94.4003 26.414 94.4303 26.444 94.4903 26.444H100.142C100.202 26.444 100.25 26.468 100.286 26.516C100.334 26.552 100.358 26.6 100.358 26.66V28.784C100.358 28.844 100.334 28.898 100.286 28.946C100.25 28.982 100.202 29 100.142 29H91.6283C91.5683 29 91.5143 28.982 91.4663 28.946C91.4303 28.898 91.4123 28.844 91.4123 28.784V16.616C91.4123 16.556 91.4303 16.508 91.4663 16.472C91.5143 16.424 91.5683 16.4 91.6283 16.4H100.142C100.202 16.4 100.25 16.424 100.286 16.472C100.334 16.508 100.358 16.556 100.358 16.616V18.74ZM59.3759 36.448C59.3039 36.484 59.3039 36.52 59.3759 36.556C60.4679 37.132 61.0139 38.092 61.0139 39.436C61.0139 40.636 60.5999 41.53 59.7719 42.118C58.9439 42.706 57.8579 43 56.5139 43H51.7259C51.6659 43 51.6119 42.982 51.5639 42.946C51.5279 42.898 51.5099 42.844 51.5099 42.784V30.616C51.5099 30.556 51.5279 30.508 51.5639 30.472C51.6119 30.424 51.6659 30.4 51.7259 30.4H56.3699C57.8339 30.4 58.9379 30.676 59.6819 31.228C60.4379 31.78 60.8159 32.674 60.8159 33.91C60.8159 35.086 60.3359 35.932 59.3759 36.448ZM54.5879 32.956C54.5279 32.956 54.4979 32.986 54.4979 33.046V35.314C54.4979 35.374 54.5279 35.404 54.5879 35.404H56.3699C56.8619 35.404 57.2399 35.302 57.5039 35.098C57.7679 34.882 57.8999 34.582 57.8999 34.198C57.8999 33.802 57.7679 33.496 57.5039 33.28C57.2399 33.064 56.8619 32.956 56.3699 32.956H54.5879ZM56.5139 40.426C56.9939 40.426 57.3659 40.318 57.6299 40.102C57.8939 39.874 58.0259 39.55 58.0259 39.13C58.0259 38.722 57.8939 38.41 57.6299 38.194C57.3779 37.966 57.0059 37.852 56.5139 37.852H54.5879C54.5279 37.852 54.4979 37.882 54.4979 37.942V40.336C54.4979 40.396 54.5279 40.426 54.5879 40.426H56.5139ZM70.0719 43C69.9399 43 69.8559 42.94 69.8199 42.82L69.3519 41.218C69.3279 41.17 69.2979 41.146 69.2619 41.146H65.1579C65.1219 41.146 65.0919 41.17 65.0679 41.218L64.5999 42.82C64.5639 42.94 64.4799 43 64.3479 43H61.5939C61.5219 43 61.4679 42.982 61.4319 42.946C61.3959 42.898 61.3899 42.832 61.4139 42.748L65.2659 30.58C65.3019 30.46 65.3799 30.4 65.4999 30.4H68.9019C69.0219 30.4 69.0999 30.46 69.1359 30.58L73.0059 42.748C73.0179 42.772 73.0239 42.802 73.0239 42.838C73.0239 42.946 72.9579 43 72.8259 43H70.0719ZM65.7879 38.734C65.7759 38.806 65.7999 38.842 65.8599 38.842H68.5419C68.6139 38.842 68.6379 38.806 68.6139 38.734L67.2459 34.108C67.2339 34.06 67.2159 34.042 67.1919 34.054C67.1679 34.054 67.1499 34.072 67.1379 34.108L65.7879 38.734ZM78.0722 43.144C77.0762 43.144 76.2062 42.988 75.4622 42.676C74.7302 42.352 74.1602 41.896 73.7522 41.308C73.3562 40.708 73.1582 40.018 73.1582 39.238V38.896C73.1582 38.836 73.1762 38.788 73.2122 38.752C73.2602 38.704 73.3142 38.68 73.3742 38.68H75.8762C75.9362 38.68 75.9842 38.704 76.0202 38.752C76.0682 38.788 76.0922 38.836 76.0922 38.896V39.112C76.0922 39.508 76.2902 39.856 76.6862 40.156C77.0822 40.444 77.6162 40.588 78.2882 40.588C78.8162 40.588 79.2062 40.474 79.4582 40.246C79.7102 40.018 79.8362 39.754 79.8362 39.454C79.8362 39.214 79.7582 39.022 79.6022 38.878C79.4582 38.722 79.2602 38.596 79.0082 38.5C78.7562 38.392 78.3662 38.248 77.8382 38.068C77.7662 38.032 77.6942 38.008 77.6222 37.996C77.5502 37.972 77.4842 37.948 77.4242 37.924C76.6442 37.672 75.9662 37.402 75.3902 37.114C74.8142 36.814 74.3222 36.406 73.9142 35.89C73.5062 35.362 73.3022 34.714 73.3022 33.946C73.3022 33.202 73.4942 32.554 73.8782 32.002C74.2742 31.438 74.8202 31.006 75.5162 30.706C76.2122 30.406 76.9982 30.256 77.8742 30.256C78.7982 30.256 79.6262 30.424 80.3582 30.76C81.1022 31.096 81.6842 31.57 82.1042 32.182C82.5242 32.794 82.7342 33.496 82.7342 34.288V34.54C82.7342 34.6 82.7102 34.654 82.6622 34.702C82.6262 34.738 82.5782 34.756 82.5182 34.756H80.0162C79.9562 34.756 79.9022 34.738 79.8542 34.702C79.8182 34.654 79.8002 34.6 79.8002 34.54V34.414C79.8002 33.994 79.6142 33.622 79.2422 33.298C78.8702 32.974 78.3722 32.812 77.7482 32.812C77.2802 32.812 76.9142 32.908 76.6502 33.1C76.3862 33.292 76.2542 33.562 76.2542 33.91C76.2542 34.174 76.3382 34.396 76.5062 34.576C76.6742 34.744 76.9322 34.906 77.2802 35.062C77.6402 35.206 78.1862 35.398 78.9182 35.638C79.7582 35.926 80.4122 36.178 80.8802 36.394C81.3482 36.61 81.7862 36.964 82.1942 37.456C82.6142 37.936 82.8242 38.572 82.8242 39.364C82.8242 40.144 82.6262 40.816 82.2302 41.38C81.8342 41.944 81.2762 42.382 80.5562 42.694C79.8482 42.994 79.0202 43.144 78.0722 43.144ZM93.2216 32.74C93.2216 32.8 93.1976 32.854 93.1496 32.902C93.1136 32.938 93.0656 32.956 93.0056 32.956H87.3536C87.2936 32.956 87.2636 32.986 87.2636 33.046V35.26C87.2636 35.32 87.2936 35.35 87.3536 35.35H90.9716C91.0316 35.35 91.0796 35.374 91.1156 35.422C91.1636 35.458 91.1876 35.506 91.1876 35.566V37.672C91.1876 37.732 91.1636 37.786 91.1156 37.834C91.0796 37.87 91.0316 37.888 90.9716 37.888H87.3536C87.2936 37.888 87.2636 37.918 87.2636 37.978V40.354C87.2636 40.414 87.2936 40.444 87.3536 40.444H93.0056C93.0656 40.444 93.1136 40.468 93.1496 40.516C93.1976 40.552 93.2216 40.6 93.2216 40.66V42.784C93.2216 42.844 93.1976 42.898 93.1496 42.946C93.1136 42.982 93.0656 43 93.0056 43H84.4916C84.4316 43 84.3776 42.982 84.3296 42.946C84.2936 42.898 84.2756 42.844 84.2756 42.784V30.616C84.2756 30.556 84.2936 30.508 84.3296 30.472C84.3776 30.424 84.4316 30.4 84.4916 30.4H93.0056C93.0656 30.4 93.1136 30.424 93.1496 30.472C93.1976 30.508 93.2216 30.556 93.2216 30.616V32.74Z" fill="#1F2937"/>
</svg>
