<svg width="502" height="161" viewBox="0 0 502 161" fill="none" xmlns="http://www.w3.org/2000/svg">
<circle cx="481.66" cy="140" r="20" fill="#1E40AF"/>
<path fill-rule="evenodd" clip-rule="evenodd" d="M331.16 0H371.16V82.3562L407.16 36H455.66L407.485 97.0883L455.16 160H406.66L371.16 112.429V160H331.16V0Z" fill="#1E40AF"/>
<rect x="273.16" width="40" height="160" fill="#1E40AF"/>
<path fill-rule="evenodd" clip-rule="evenodd" d="M255.16 60H215.16V73.4359C206.355 65.6945 194.806 61 182.16 61C154.546 61 132.16 83.3858 132.16 111C132.16 138.614 154.546 161 182.16 161C194.806 161 206.355 156.305 215.16 148.564V160H255.16V60ZM202.16 111C202.16 122.046 193.206 131 182.16 131C171.114 131 162.16 122.046 162.16 111C162.16 99.9543 171.114 91 182.16 91C193.206 91 202.16 99.9543 202.16 111Z" fill="#1E40AF"/>
<path fill-rule="evenodd" clip-rule="evenodd" d="M37.0002 3.05176e-05H77.0002V120H114V160H77.0002H69.0002H61.0002C47.7454 160 37.0002 149.255 37.0002 136V74H8.00024V34H37.0002V3.05176e-05Z" fill="#1E40AF"/>
<path fill-rule="evenodd" clip-rule="evenodd" d="M88.8279 62.4529C87.6851 61.2533 87.7311 59.3544 88.9307 58.2115C90.1303 57.0686 92.0292 57.1147 93.1721 58.3143C95.921 61.1997 99.1765 63.4803 102.749 65.0334C106.32 66.5864 110.143 67.3836 114 67.3836C117.857 67.3836 121.68 66.5864 125.251 65.0334C128.824 63.4803 132.079 61.1997 134.828 58.3143C135.971 57.1147 137.87 57.0686 139.069 58.2115C140.269 59.3544 140.315 61.2533 139.172 62.4529C135.88 65.9083 131.964 68.6574 127.644 70.5359C123.323 72.4145 118.686 73.3836 114 73.3836C109.314 73.3836 104.677 72.4145 100.356 70.5359C96.0358 68.6574 92.1198 65.9083 88.8279 62.4529ZM99.8724 56.4986C98.7043 55.3236 98.7099 53.4241 99.885 52.256C101.06 51.0879 102.959 51.0935 104.128 52.2685C105.426 53.5743 106.966 54.6092 108.659 55.3149C110.353 56.0206 112.168 56.3836 114 56.3836C115.832 56.3836 117.647 56.0206 119.341 55.3149C121.034 54.6092 122.574 53.5743 123.872 52.2685C125.041 51.0935 126.94 51.0879 128.115 52.256C129.29 53.4241 129.296 55.3236 128.128 56.4986C126.274 58.3632 124.072 59.8433 121.648 60.8533C119.224 61.8634 116.625 62.3836 114 62.3836C111.375 62.3836 108.776 61.8634 106.352 60.8533C103.928 59.8433 101.726 58.3632 99.8724 56.4986Z" fill="#3B82F6"/>
<path d="M114.4 46.64C110.133 46.64 106.464 45.7227 103.392 43.888C100.32 42.0533 97.9733 39.408 96.352 35.952C94.7307 32.496 93.92 28.3787 93.92 23.6C93.92 18.8213 94.7307 14.704 96.352 11.248C97.9733 7.792 100.32 5.14666 103.392 3.312C106.464 1.47733 110.133 0.559998 114.4 0.559998C118.667 0.559998 122.336 1.47733 125.408 3.312C128.48 5.14666 130.827 7.792 132.448 11.248C134.069 14.704 134.88 18.8213 134.88 23.6C134.88 28.3787 134.069 32.496 132.448 35.952C130.827 39.408 128.48 42.0533 125.408 43.888C122.336 45.7227 118.667 46.64 114.4 46.64ZM114.4 38.512C117.557 38.512 120.032 37.1893 121.824 34.544C123.659 31.8987 124.576 28.2507 124.576 23.6C124.576 18.9493 123.659 15.3013 121.824 12.656C120.032 10.0107 117.557 8.688 114.4 8.688C111.243 8.688 108.747 10.0107 106.912 12.656C105.12 15.3013 104.224 18.9493 104.224 23.6C104.224 28.2507 105.12 31.8987 106.912 34.544C108.747 37.1893 111.243 38.512 114.4 38.512ZM154.605 46.64C151.106 46.64 147.949 45.936 145.133 44.528C142.359 43.12 140.098 41.072 138.349 38.384L144.301 32.752C145.709 34.416 147.394 35.7813 149.357 36.848C151.362 37.9147 153.218 38.448 154.925 38.448C156.717 38.448 158.146 38.064 159.213 37.296C160.279 36.528 160.813 35.5253 160.813 34.288C160.813 33.3067 160.642 32.5387 160.301 31.984C160.002 31.4293 159.341 30.8533 158.317 30.256C157.335 29.616 155.629 28.6773 153.197 27.44C149.954 25.8187 147.415 24.3253 145.581 22.96C143.746 21.5947 142.359 20.1013 141.421 18.48C140.525 16.816 140.077 14.8533 140.077 12.592C140.077 10.2453 140.717 8.15467 141.997 6.32C143.277 4.48533 145.069 3.07733 147.373 2.096C149.719 1.072 152.407 0.559998 155.437 0.559998C158.807 0.559998 161.751 1.17866 164.269 2.416C166.829 3.65333 168.706 5.38133 169.901 7.6L163.437 12.464C161.346 9.98933 158.85 8.752 155.949 8.752C154.157 8.752 152.77 9.09333 151.789 9.776C150.85 10.416 150.381 11.3333 150.381 12.528C150.381 13.296 150.658 14 151.213 14.64C151.767 15.28 152.727 16.0053 154.093 16.816C155.501 17.584 157.591 18.608 160.365 19.888C163.053 21.1253 165.165 22.384 166.701 23.664C168.237 24.9013 169.325 26.3307 169.965 27.952C170.647 29.5307 170.989 31.4507 170.989 33.712C170.989 36.3147 170.306 38.5973 168.941 40.56C167.618 42.48 165.719 43.9733 163.245 45.04C160.77 46.1067 157.89 46.64 154.605 46.64ZM176.596 1.2H186.9V19.056H202.708V1.2H213.012V46H202.708V27.248H186.9V46H176.596V1.2ZM239.525 46.64C235.258 46.64 231.589 45.7227 228.517 43.888C225.445 42.0533 223.098 39.408 221.477 35.952C219.856 32.496 219.045 28.3787 219.045 23.6C219.045 18.8213 219.856 14.704 221.477 11.248C223.098 7.792 225.445 5.14666 228.517 3.312C231.589 1.47733 235.258 0.559998 239.525 0.559998C243.792 0.559998 247.461 1.47733 250.533 3.312C253.605 5.14666 255.952 7.792 257.573 11.248C259.194 14.704 260.005 18.8213 260.005 23.6C260.005 28.3787 259.194 32.496 257.573 35.952C255.952 39.408 253.605 42.0533 250.533 43.888C247.461 45.7227 243.792 46.64 239.525 46.64ZM239.525 38.512C242.682 38.512 245.157 37.1893 246.949 34.544C248.784 31.8987 249.701 28.2507 249.701 23.6C249.701 18.9493 248.784 15.3013 246.949 12.656C245.157 10.0107 242.682 8.688 239.525 8.688C236.368 8.688 233.872 10.0107 232.037 12.656C230.245 15.3013 229.349 18.9493 229.349 23.6C229.349 28.2507 230.245 31.8987 232.037 34.544C233.872 37.1893 236.368 38.512 239.525 38.512Z" fill="#0EA5E9"/>
</svg>
