<svg width="115" height="38" viewBox="0 0 115 38" fill="none" xmlns="http://www.w3.org/2000/svg">
<path d="M110.331 37.764C112.91 37.764 115 35.6505 115 33.0435C115 30.4364 112.91 28.323 110.331 28.323C107.753 28.323 105.663 30.4364 105.663 33.0435C105.663 35.6505 107.753 37.764 110.331 37.764Z" fill="#0EA5E9"/>
<path fill-rule="evenodd" clip-rule="evenodd" d="M75.2007 0H84.5378V19.4381L92.9411 8.49689H104.262L93.017 22.9153L104.146 37.764H92.8244L84.5378 26.536V37.764H75.2007V0Z" fill="#1E40AF"/>
<path d="M70.999 0H61.6619V37.764H70.999V0Z" fill="#1E40AF"/>
<path fill-rule="evenodd" clip-rule="evenodd" d="M57.4603 14.1615H48.1232V17.3327C46.0679 15.5055 43.372 14.3975 40.4201 14.3975C33.9743 14.3975 28.7488 19.6811 28.7488 26.1988C28.7488 32.7164 33.9743 38 40.4201 38C43.372 38 46.0679 36.8919 48.1232 35.0648V37.764H57.4603V14.1615ZM45.0887 26.1988C45.0887 28.8059 42.9985 30.9193 40.4201 30.9193C37.8417 30.9193 35.7516 28.8059 35.7516 26.1988C35.7516 23.5917 37.8417 21.4783 40.4201 21.4783C42.9985 21.4783 45.0887 23.5917 45.0887 26.1988Z" fill="#1E40AF"/>
<path fill-rule="evenodd" clip-rule="evenodd" d="M6.76937 3.05176e-05H16.1064V28.323H24.7432V37.764H16.1064H14.239H12.3716C9.27758 37.764 6.76937 35.2279 6.76937 32.0994V17.4659H0V8.02487H6.76937V3.05176e-05Z" fill="#1E40AF"/>
<path fill-rule="evenodd" clip-rule="evenodd" d="M18.6339 14.7404C18.3672 14.4573 18.3779 14.0091 18.6579 13.7394C18.9379 13.4696 19.3812 13.4805 19.648 13.7636C20.2896 14.4447 21.0496 14.9829 21.8835 15.3495C22.7171 15.7161 23.6094 15.9042 24.5098 15.9042C25.4101 15.9042 26.3025 15.7161 27.1361 15.3495C27.9701 14.9829 28.7299 14.4447 29.3716 13.7636C29.6384 13.4805 30.0817 13.4696 30.3616 13.7394C30.6417 14.0091 30.6524 14.4573 30.3856 14.7404C29.6172 15.556 28.7031 16.2049 27.6946 16.6482C26.686 17.0916 25.6036 17.3204 24.5098 17.3204C23.4159 17.3204 22.3335 17.0916 21.3249 16.6482C20.3164 16.2049 19.4023 15.556 18.6339 14.7404ZM21.212 13.3351C20.9393 13.0578 20.9406 12.6094 21.215 12.3337C21.4892 12.058 21.9325 12.0593 22.2054 12.3367C22.5084 12.6449 22.8678 12.8891 23.263 13.0557C23.6585 13.2223 24.0821 13.3079 24.5098 13.3079C24.9374 13.3079 25.3611 13.2223 25.7565 13.0557C26.1517 12.8891 26.5112 12.6449 26.8142 12.3367C27.087 12.0593 27.5303 12.058 27.8046 12.3337C28.0789 12.6094 28.0803 13.0578 27.8076 13.3351C27.3749 13.7752 26.8608 14.1245 26.295 14.3629C25.7292 14.6013 25.1225 14.7241 24.5098 14.7241C23.897 14.7241 23.2903 14.6013 22.7245 14.3629C22.1587 14.1245 21.6447 13.7752 21.212 13.3351Z" fill="#0EA5E9"/>
<path d="M24.6031 11.0082C23.6071 11.0082 22.7506 10.7917 22.0335 10.3587C21.3164 9.92562 20.7687 9.30126 20.3902 8.48556C20.0117 7.66986 19.8225 6.69808 19.8225 5.57018C19.8225 4.44229 20.0117 3.47051 20.3902 2.65481C20.7687 1.8391 21.3164 1.21474 22.0335 0.781712C22.7506 0.348685 23.6071 0.132172 24.6031 0.132172C25.5991 0.132172 26.4556 0.348685 27.1727 0.781712C27.8897 1.21474 28.4376 1.8391 28.816 2.65481C29.1944 3.47051 29.3837 4.44229 29.3837 5.57018C29.3837 6.69808 29.1944 7.66986 28.816 8.48556C28.4376 9.30126 27.8897 9.92562 27.1727 10.3587C26.4556 10.7917 25.5991 11.0082 24.6031 11.0082ZM24.6031 9.08979C25.34 9.08979 25.9177 8.77759 26.336 8.15324C26.7644 7.52888 26.9784 6.66786 26.9784 5.57018C26.9784 4.4725 26.7644 3.61148 26.336 2.98713C25.9177 2.36277 25.34 2.05058 24.6031 2.05058C23.8662 2.05058 23.2835 2.36277 22.8552 2.98713C22.4369 3.61148 22.2277 4.4725 22.2277 5.57018C22.2277 6.66786 22.4369 7.52888 22.8552 8.15324C23.2835 8.77759 23.8662 9.08979 24.6031 9.08979ZM33.988 11.0082C33.1713 11.0082 32.4343 10.842 31.777 10.5097C31.1295 10.1774 30.6017 9.69401 30.1934 9.05957L31.5828 7.73028C31.9114 8.12303 32.3048 8.44527 32.763 8.69704C33.231 8.94881 33.6642 9.07468 34.0627 9.07468C34.481 9.07468 34.8146 8.98405 35.0636 8.80278C35.3125 8.62151 35.4371 8.38485 35.4371 8.09282C35.4371 7.86121 35.3972 7.67994 35.3176 7.54902C35.2478 7.41809 35.0935 7.28214 34.8545 7.14116C34.6253 6.99011 34.227 6.76855 33.6593 6.47652C32.9023 6.09385 32.3097 5.74137 31.8816 5.41913C31.4532 5.09688 31.1295 4.7444 30.9105 4.36174C30.7014 3.96899 30.5968 3.50575 30.5968 2.97202C30.5968 2.41814 30.7462 1.9247 31.045 1.49168C31.3438 1.05865 31.7621 0.726324 32.2999 0.494706C32.8475 0.253017 33.4749 0.132172 34.1822 0.132172C34.9689 0.132172 35.6561 0.278191 36.2438 0.570234C36.8414 0.862275 37.2796 1.27013 37.5585 1.79379L36.0496 2.94181C35.5615 2.35773 34.9789 2.06569 34.3017 2.06569C33.8834 2.06569 33.5597 2.14625 33.3307 2.30738C33.1115 2.45843 33.002 2.67494 33.002 2.95692C33.002 3.13818 33.0667 3.30435 33.1962 3.4554C33.3255 3.60646 33.5496 3.77765 33.8685 3.96899C34.1972 4.15026 34.685 4.39195 35.3326 4.69406C35.96 4.98609 36.453 5.28318 36.8115 5.58529C37.1701 5.87732 37.4241 6.2147 37.5734 6.59736C37.7326 6.96998 37.8125 7.42314 37.8125 7.95687C37.8125 8.57117 37.653 9.10992 37.3344 9.57316C37.0256 10.0263 36.5823 10.3788 36.0048 10.6306C35.4271 10.8823 34.7548 11.0082 33.988 11.0082ZM39.1213 0.283228H41.5265V4.49769H45.2165V0.283228H47.6218V10.8571H45.2165V6.4312H41.5265V10.8571H39.1213V0.283228ZM53.8106 11.0082C52.8146 11.0082 51.9581 10.7917 51.241 10.3587C50.524 9.92562 49.9761 9.30126 49.5977 8.48556C49.2193 7.66986 49.03 6.69808 49.03 5.57018C49.03 4.44229 49.2193 3.47051 49.5977 2.65481C49.9761 1.8391 50.524 1.21474 51.241 0.781712C51.9581 0.348685 52.8146 0.132172 53.8106 0.132172C54.8066 0.132172 55.6631 0.348685 56.3802 0.781712C57.0973 1.21474 57.6451 1.8391 58.0235 2.65481C58.4019 3.47051 58.5912 4.44229 58.5912 5.57018C58.5912 6.69808 58.4019 7.66986 58.0235 8.48556C57.6451 9.30126 57.0973 9.92562 56.3802 10.3587C55.6631 10.7917 54.8066 11.0082 53.8106 11.0082ZM53.8106 9.08979C54.5475 9.08979 55.1253 8.77759 55.5436 8.15324C55.9719 7.52888 56.186 6.66786 56.186 5.57018C56.186 4.4725 55.9719 3.61148 55.5436 2.98713C55.1253 2.36277 54.5475 2.05058 53.8106 2.05058C53.0737 2.05058 52.4911 2.36277 52.0627 2.98713C51.6444 3.61148 51.4353 4.4725 51.4353 5.57018C51.4353 6.66786 51.6444 7.52888 52.0627 8.15324C52.4911 8.77759 53.0737 9.08979 53.8106 9.08979Z" fill="#0EA5E9"/>
</svg>
